<?xml version="1.0" encoding="iso-8859-1"?>
<!-- Uploaded to: SVG Repo, www.svgrepo.com, Generator: SVG Repo Mixer Tools -->
<!DOCTYPE svg PUBLIC "-//W3C//DTD SVG 1.1//EN" "http://www.w3.org/Graphics/SVG/1.1/DTD/svg11.dtd">
<svg fill="#000000" version="1.1" id="Capa_1" xmlns="http://www.w3.org/2000/svg" xmlns:xlink="http://www.w3.org/1999/xlink" 
	 width="800px" height="800px" viewBox="0 0 108.364 108.364"
	 xml:space="preserve">
<g>
	<g>
		<path d="M54.182,0C24.258,0,0,24.258,0,54.182c0,29.924,24.258,54.183,54.182,54.183c29.923,0,54.182-24.259,54.182-54.183
			C108.364,24.258,84.105,0,54.182,0z M68.713,33.622c3.424,0,6.2,2.777,6.2,6.201c0,3.426-2.776,6.203-6.2,6.203
			c-3.423,0-6.203-2.777-6.203-6.203C62.51,36.399,65.29,33.622,68.713,33.622z M40.594,33.622c3.423,0,6.2,2.777,6.2,6.201
			c0,3.426-2.777,6.203-6.2,6.203c-3.423,0-6.2-2.777-6.2-6.203C34.393,36.399,37.171,33.622,40.594,33.622z M79.693,77.242
			c-0.268,0.398-0.715,0.637-1.192,0.637c-0.001,0-0.001,0-0.002,0l-48.638-0.06c-0.482,0-0.932-0.244-1.196-0.647
			c-0.264-0.402-0.31-0.912-0.118-1.355c4.285-9.904,14.318-16.305,25.563-16.305c11.485,0,21.579,6.432,25.714,16.383
			C80.01,76.338,79.959,76.844,79.693,77.242z"/>
	</g>
</g>
</svg>